<svg width="147" height="43" viewBox="0 0 147 43" fill="none" xmlns="http://www.w3.org/2000/svg">
<path d="M20.3396 41.8802V33.8406H18.9924V39.4065L15.0625 33.8406H13.6834V41.8802H15.0306V36.1305L19.035 41.8802H20.3396ZM33.3539 41.8802L30.3346 33.8406H28.6519L25.638 41.8802H27.1663L27.7307 40.3258H31.2559L31.8203 41.8802H33.3539ZM30.8778 39.0833H28.1141L29.4933 35.2502L30.8778 39.0833ZM39.9835 41.8802V33.8406H38.6363V41.8802H39.9835ZM50.7187 41.8802V40.6378H47.332V33.8406H45.9848V41.8802H50.7187ZM64.2655 41.8802C63.7117 41.3231 63.2272 40.8049 62.7639 40.3035C63.2165 39.6628 63.5626 38.9496 63.8236 38.2978L62.8491 37.8298C62.7106 38.2978 62.455 38.9385 62.0876 39.5179C61.832 39.2282 61.5817 38.9162 61.3261 38.5875C61.1078 38.3256 60.8309 37.9746 60.5647 37.5902C61.5232 37.1055 62.4763 36.5762 62.4763 35.3616C62.4763 34.3142 61.6243 33.7236 60.5913 33.7236C59.3932 33.7236 58.5039 34.5426 58.5039 35.6123C58.5039 36.1695 58.7222 36.7823 59.047 37.384C58.1578 37.852 57.375 38.4928 57.375 39.7352C57.375 41.2506 58.4826 42.0251 59.8405 42.0251C60.7138 42.0251 61.4167 41.6852 61.9918 41.1782C62.2474 41.4568 62.487 41.6963 62.6734 41.8802H64.2655ZM60.0002 41.011C59.2867 41.011 58.653 40.504 58.653 39.6238C58.653 38.9496 59.0204 38.5318 59.5316 38.1808C59.7925 38.5763 60.0961 38.9775 60.3836 39.3229C60.5753 39.5903 60.9321 40.0138 61.3261 40.4428C60.9321 40.7826 60.4954 41.011 60.0002 41.011ZM59.7127 35.6513C59.7127 35.0607 60.128 34.6485 60.6339 34.6485C61.0705 34.6485 61.406 34.9382 61.406 35.434C61.406 36.1082 60.8203 36.4926 60.0961 36.8547C59.8618 36.4313 59.7127 36.0135 59.7127 35.6513ZM75.1019 41.8802C76.5503 41.8802 77.3331 40.9498 77.3331 39.6962C77.3331 38.7212 76.6781 37.8688 75.8474 37.735C76.561 37.579 77.184 36.8882 77.184 35.8909C77.184 34.7599 76.4119 33.8406 74.9954 33.8406H71.22V41.8802H75.1019ZM74.7345 37.1556H72.5672V35.083H74.7345C75.4108 35.083 75.8048 35.5287 75.8048 36.1193C75.8048 36.7322 75.4108 37.1556 74.7345 37.1556ZM74.7877 40.6378H72.5672V38.398H74.7877C75.5492 38.398 75.9539 38.9162 75.9539 39.5179C75.9539 40.2143 75.5173 40.6378 74.7877 40.6378ZM88.4144 41.8802V40.6378H84.5005V38.398H88.3345V37.1556H84.5005V35.083H88.4144V33.8406H83.1533V41.8802H88.4144ZM101.173 41.8802L98.1592 33.8406H96.4765L93.4572 41.8802H94.9908L95.5552 40.3258H99.0804L99.6448 41.8802H101.173ZM98.697 39.0833H95.9333L97.3178 35.2502L98.697 39.0833ZM109.443 42.0251C111.679 42.0251 112.771 40.6879 112.771 38.6989V33.8406H111.402V38.6599C111.402 39.9413 110.721 40.7715 109.443 40.7715C108.165 40.7715 107.483 39.9413 107.483 38.6599V33.8406H106.115V38.6989C106.115 40.6879 107.222 42.0251 109.443 42.0251ZM122.042 41.8802V35.083H124.369V33.8406H118.368V35.083H120.695V41.8802H122.042ZM133.501 41.8802V38.5429L136.473 33.8406H134.928L132.825 37.2782L130.716 33.8406H129.172L132.154 38.5429V41.8802H133.501Z" fill="#2B2A29"/>
<path d="M23.966 25.1157L14.9081 0.974609H9.8547L0.796875 25.1157H5.39235L7.09103 20.4468H17.6718L19.3705 25.1157H23.966ZM16.5323 16.7195H8.23058L12.3788 5.20891L16.5323 16.7195ZM55.7828 25.1157V0.974609H50.0744L43.8122 17.5497L37.5181 0.974609H31.815V25.1157H35.8567V6.47363L42.9496 25.1157H44.6802L51.7358 6.47363V25.1157H55.7828ZM86.8329 25.1157L77.7698 0.974609H72.7217L63.6585 25.1157H68.2593L69.9527 20.4468H80.5387L82.2321 25.1157H86.8329ZM79.3992 16.7195H71.0975L75.2457 5.20891L79.3992 16.7195ZM108.617 25.1157V21.3884H98.4467V0.974609H94.3997V25.1157H108.617ZM121.579 25.1157V14.6525H133.097V10.9252H121.579V4.70191H133.341V0.974609H117.532V25.1157H121.579ZM146.404 25.1157V0.974609H142.357V25.1157H146.404Z" fill="#2B2A29"/>
</svg>
