<svg width="20" height="17" viewBox="0 0 20 17" fill="none" xmlns="http://www.w3.org/2000/svg">
<path d="M19.3973 4.8474V13.3998C19.3973 14.1955 19.0812 14.9585 18.5186 15.5211C17.956 16.0837 17.1929 16.3998 16.3973 16.3998H3.19727C2.40162 16.3998 1.63855 16.0837 1.07595 15.5211C0.513336 14.9585 0.197266 14.1955 0.197266 13.3998V4.8474L9.49247 10.317C9.58481 10.3715 9.69006 10.4002 9.79727 10.4002C9.90447 10.4002 10.0097 10.3715 10.1021 10.317L19.3973 4.8474ZM16.3973 0.799805C17.1354 0.799689 17.8477 1.07173 18.3979 1.56389C18.9481 2.05605 19.2975 2.73377 19.3793 3.4674L9.79727 9.10381L0.215266 3.4674C0.297056 2.73377 0.646454 2.05605 1.19662 1.56389C1.74678 1.07173 2.45909 0.799689 3.19727 0.799805H16.3973Z" fill="black"/>
</svg>
