<svg width="21" height="20" viewBox="0 0 21 20" fill="none" xmlns="http://www.w3.org/2000/svg">
<g clip-path="url(#clip0)">
<path d="M19.3545 0H2.23929C1.44263 0 0.796875 0.645752 0.796875 1.44241V18.5576C0.796875 19.3542 1.44263 20 2.23929 20H11.4805V12.2656H8.88281V9.23828H11.4805V7.01035C11.4805 4.42673 13.0578 3.02048 15.3625 3.02048C16.4663 3.02048 17.4149 3.10272 17.6914 3.1395V5.83984H16.1022C14.8482 5.83984 14.6055 6.4357 14.6055 7.31018V9.23828H17.6035L17.2129 12.2656H14.6055V20H19.3545C20.1511 20 20.7969 19.3542 20.7969 18.5576V1.44241C20.7969 0.645752 20.1511 0 19.3545 0V0Z" fill="#FAB38B"/>
</g>
<defs>
<clipPath id="clip0">
<rect width="20" height="20" fill="white" transform="translate(0.796875)"/>
</clipPath>
</defs>
</svg>
