<svg width="21" height="20" viewBox="0 0 21 20" fill="none" xmlns="http://www.w3.org/2000/svg">
<g clip-path="url(#clip0)">
<path d="M15.2738 6.61343C15.1818 6.36411 15.035 6.13843 14.8443 5.95319C14.659 5.76245 14.4335 5.61566 14.184 5.52365C13.9817 5.44507 13.6777 5.35153 13.1179 5.32605C12.5123 5.29843 12.3307 5.29248 10.7975 5.29248C9.26413 5.29248 9.08255 5.29828 8.47708 5.3259C7.91724 5.35153 7.61313 5.44507 7.41095 5.52365C7.16147 5.61566 6.93579 5.76245 6.7507 5.95319C6.55997 6.13843 6.41318 6.36395 6.32101 6.61343C6.24243 6.81577 6.1489 7.11987 6.12341 7.67972C6.09579 8.28519 6.08984 8.46677 6.08984 10.0001C6.08984 11.5333 6.09579 11.7149 6.12341 12.3205C6.1489 12.8804 6.24243 13.1843 6.32101 13.3867C6.41318 13.6361 6.55981 13.8617 6.75055 14.0469C6.93579 14.2376 7.16132 14.3844 7.4108 14.4764C7.61313 14.5552 7.91724 14.6487 8.47708 14.6742C9.08255 14.7018 9.26398 14.7076 10.7973 14.7076C12.3308 14.7076 12.5124 14.7018 13.1177 14.6742C13.6776 14.6487 13.9817 14.5552 14.184 14.4764C14.6848 14.2833 15.0806 13.8875 15.2738 13.3867C15.3524 13.1843 15.4459 12.8804 15.4716 12.3205C15.4992 11.7149 15.505 11.5333 15.505 10.0001C15.505 8.46677 15.4992 8.28519 15.4716 7.67972C15.4461 7.11987 15.3525 6.81577 15.2738 6.61343ZM10.7975 12.9486C9.16891 12.9486 7.84872 11.6285 7.84872 9.99997C7.84872 8.3714 9.16891 7.05136 10.7975 7.05136C12.4259 7.05136 13.7461 8.3714 13.7461 9.99997C13.7461 11.6285 12.4259 12.9486 10.7975 12.9486ZM13.8627 7.62387C13.4821 7.62387 13.1736 7.31534 13.1736 6.93478C13.1736 6.55423 13.4821 6.2457 13.8627 6.2457C14.2432 6.2457 14.5518 6.55423 14.5518 6.93478C14.5516 7.31534 14.2432 7.62387 13.8627 7.62387Z" fill="#91D5DE"/>
<path d="M12.7109 10C12.7109 11.0571 11.854 11.9141 10.7969 11.9141C9.73975 11.9141 8.88281 11.0571 8.88281 10C8.88281 8.94287 9.73975 8.08594 10.7969 8.08594C11.854 8.08594 12.7109 8.94287 12.7109 10Z" fill="#91D5DE"/>
<path d="M19.3545 0H2.23929C1.44263 0 0.796875 0.645752 0.796875 1.44241V18.5576C0.796875 19.3542 1.44263 20 2.23929 20H19.3545C20.1511 20 20.7969 19.3542 20.7969 18.5576V1.44241C20.7969 0.645752 20.1511 0 19.3545 0V0ZM16.5044 12.3674C16.4767 12.9787 16.3795 13.396 16.2375 13.7613C15.9392 14.5326 15.3295 15.1424 14.5582 15.4407C14.193 15.5826 13.7755 15.6796 13.1644 15.7076C12.5521 15.7355 12.3565 15.7422 10.797 15.7422C9.23743 15.7422 9.04196 15.7355 8.42947 15.7076C7.81836 15.6796 7.40088 15.5826 7.03574 15.4407C6.65244 15.2965 6.30545 15.0705 6.01859 14.7783C5.72653 14.4916 5.50055 14.1444 5.35635 13.7613C5.21445 13.3961 5.11725 12.9787 5.08948 12.3676C5.06125 11.7551 5.05469 11.5594 5.05469 10C5.05469 8.44055 5.06125 8.24493 5.08932 7.6326C5.1171 7.02133 5.21414 6.604 5.35605 6.23871C5.50024 5.85556 5.72638 5.50842 6.01859 5.22171C6.3053 4.9295 6.65244 4.70352 7.03558 4.55933C7.40088 4.41742 7.81821 4.32037 8.42947 4.29245C9.04181 4.26453 9.23743 4.25781 10.7969 4.25781C12.3563 4.25781 12.5519 4.26453 13.1643 4.2926C13.7755 4.32037 14.1929 4.41742 14.5582 4.55917C14.9413 4.70337 15.2885 4.9295 15.5753 5.22171C15.8674 5.50858 16.0935 5.85556 16.2375 6.23871C16.3796 6.604 16.4767 7.02133 16.5046 7.6326C16.5325 8.24493 16.5391 8.44055 16.5391 10C16.5391 11.5594 16.5325 11.7551 16.5044 12.3674Z" fill="#91D5DE"/>
</g>
<defs>
<clipPath id="clip0">
<rect width="20" height="20" fill="white" transform="translate(0.796875)"/>
</clipPath>
</defs>
</svg>
