<svg width="20" height="16" viewBox="0 0 20 16" fill="none" xmlns="http://www.w3.org/2000/svg">
<path fill-rule="evenodd" clip-rule="evenodd" d="M0 1.74951C0 1.41799 0.15051 1.10005 0.418419 0.865629C0.686328 0.631208 1.04969 0.499512 1.42857 0.499512H18.5714C18.9503 0.499512 19.3137 0.631208 19.5816 0.865629C19.8495 1.10005 20 1.41799 20 1.74951C20 2.08103 19.8495 2.39897 19.5816 2.6334C19.3137 2.86782 18.9503 2.99951 18.5714 2.99951H1.42857C1.04969 2.99951 0.686328 2.86782 0.418419 2.6334C0.15051 2.39897 0 2.08103 0 1.74951Z" fill="#00D2D2"/>
<path fill-rule="evenodd" clip-rule="evenodd" d="M0 7.99951C0 7.66799 0.15051 7.35005 0.418419 7.11563C0.686328 6.88121 1.04969 6.74951 1.42857 6.74951H18.5714C18.9503 6.74951 19.3137 6.88121 19.5816 7.11563C19.8495 7.35005 20 7.66799 20 7.99951C20 8.33103 19.8495 8.64897 19.5816 8.8834C19.3137 9.11782 18.9503 9.24951 18.5714 9.24951H1.42857C1.04969 9.24951 0.686328 9.11782 0.418419 8.8834C0.15051 8.64897 0 8.33103 0 7.99951Z" fill="#00D2D2"/>
<path fill-rule="evenodd" clip-rule="evenodd" d="M0 14.2495C0 13.918 0.15051 13.6 0.418419 13.3656C0.686328 13.1312 1.04969 12.9995 1.42857 12.9995H18.5714C18.9503 12.9995 19.3137 13.1312 19.5816 13.3656C19.8495 13.6 20 13.918 20 14.2495C20 14.581 19.8495 14.899 19.5816 15.1334C19.3137 15.3678 18.9503 15.4995 18.5714 15.4995H1.42857C1.04969 15.4995 0.686328 15.3678 0.418419 15.1334C0.15051 14.899 0 14.581 0 14.2495Z" fill="#00D2D2"/>
</svg>
