<svg width="44" height="44" viewBox="0 0 44 44" fill="none" xmlns="http://www.w3.org/2000/svg">
<circle cx="22" cy="22" r="22" fill="#F9F9F9"/>
<path fill-rule="evenodd" clip-rule="evenodd" d="M12 15.7495C12 15.418 12.1505 15.1 12.4184 14.8656C12.6863 14.6312 13.0497 14.4995 13.4286 14.4995H30.5714C30.9503 14.4995 31.3137 14.6312 31.5816 14.8656C31.8495 15.1 32 15.418 32 15.7495C32 16.081 31.8495 16.399 31.5816 16.6334C31.3137 16.8678 30.9503 16.9995 30.5714 16.9995H13.4286C13.0497 16.9995 12.6863 16.8678 12.4184 16.6334C12.1505 16.399 12 16.081 12 15.7495Z" fill="#00D2D2"/>
<path fill-rule="evenodd" clip-rule="evenodd" d="M12 21.9995C12 21.668 12.1505 21.35 12.4184 21.1156C12.6863 20.8812 13.0497 20.7495 13.4286 20.7495H30.5714C30.9503 20.7495 31.3137 20.8812 31.5816 21.1156C31.8495 21.35 32 21.668 32 21.9995C32 22.331 31.8495 22.649 31.5816 22.8834C31.3137 23.1178 30.9503 23.2495 30.5714 23.2495H13.4286C13.0497 23.2495 12.6863 23.1178 12.4184 22.8834C12.1505 22.649 12 22.331 12 21.9995Z" fill="#00D2D2"/>
<path fill-rule="evenodd" clip-rule="evenodd" d="M12 28.2495C12 27.918 12.1505 27.6 12.4184 27.3656C12.6863 27.1312 13.0497 26.9995 13.4286 26.9995H30.5714C30.9503 26.9995 31.3137 27.1312 31.5816 27.3656C31.8495 27.6 32 27.918 32 28.2495C32 28.581 31.8495 28.899 31.5816 29.1334C31.3137 29.3678 30.9503 29.4995 30.5714 29.4995H13.4286C13.0497 29.4995 12.6863 29.3678 12.4184 29.1334C12.1505 28.899 12 28.581 12 28.2495Z" fill="#00D2D2"/>
</svg>
