<svg width="19" height="18" viewBox="0 0 19 18" fill="none" xmlns="http://www.w3.org/2000/svg">
<path d="M18.2842 14.1402L14.2192 10.4442C14.027 10.2696 13.7745 10.1764 13.515 10.1845C13.2554 10.1925 13.0092 10.3011 12.8282 10.4872L10.4352 12.9482C9.85916 12.8382 8.70116 12.4772 7.50916 11.2882C6.31716 10.0952 5.95616 8.93424 5.84916 8.36224L8.30816 5.96824C8.49457 5.78737 8.60329 5.54106 8.61132 5.28145C8.61934 5.02183 8.52604 4.76928 8.35116 4.57724L4.65616 0.513239C4.4812 0.320596 4.23804 0.203743 3.97831 0.187499C3.71858 0.171254 3.46275 0.256897 3.26516 0.426239L1.09516 2.28724C0.922268 2.46075 0.819077 2.69169 0.805157 2.93624C0.790157 3.18624 0.504157 9.10824 5.09616 13.7022C9.10216 17.7072 14.1202 18.0002 15.5022 18.0002C15.7042 18.0002 15.8282 17.9942 15.8612 17.9922C16.1057 17.9786 16.3365 17.8749 16.5092 17.7012L18.3692 15.5302C18.5392 15.3333 18.6254 15.0776 18.6096 14.8179C18.5937 14.5582 18.4769 14.315 18.2842 14.1402Z" fill="black"/>
</svg>
