<svg width="15" height="20" viewBox="0 0 15 20" fill="none" xmlns="http://www.w3.org/2000/svg">
<path d="M7.79688 0C3.92688 0 0.796875 3.13 0.796875 7C0.796875 12.25 7.79688 20 7.79688 20C7.79688 20 14.7969 12.25 14.7969 7C14.7969 3.13 11.6669 0 7.79688 0ZM7.79688 9.5C7.13383 9.5 6.49795 9.23661 6.02911 8.76777C5.56027 8.29893 5.29688 7.66304 5.29688 7C5.29688 6.33696 5.56027 5.70107 6.02911 5.23223C6.49795 4.76339 7.13383 4.5 7.79688 4.5C8.45992 4.5 9.0958 4.76339 9.56464 5.23223C10.0335 5.70107 10.2969 6.33696 10.2969 7C10.2969 7.66304 10.0335 8.29893 9.56464 8.76777C9.0958 9.23661 8.45992 9.5 7.79688 9.5Z" fill="black"/>
</svg>
