<svg width="21" height="20" viewBox="0 0 21 20" fill="none" xmlns="http://www.w3.org/2000/svg">
<path d="M20.7969 4.55C20.7856 4.11857 20.7523 3.68801 20.6969 3.26C20.6222 2.88512 20.4978 2.52191 20.3269 2.18C20.1481 1.8091 19.9081 1.47103 19.6169 1.18C19.323 0.892204 18.9855 0.652591 18.6169 0.47C18.2745 0.302444 17.9113 0.181373 17.5369 0.11C17.1129 0.0464994 16.6854 0.0097601 16.2569 0H5.34688C4.91545 0.0112364 4.48488 0.0446136 4.05688 0.0999999C3.682 0.174668 3.31878 0.299103 2.97687 0.47C2.60598 0.648737 2.2679 0.888773 1.97688 1.18C1.68908 1.47391 1.44947 1.81139 1.26688 2.18C1.09932 2.52236 0.978248 2.88558 0.906875 3.26C0.843374 3.68393 0.806635 4.11145 0.796875 4.54V15.45C0.808111 15.8814 0.841489 16.312 0.896875 16.74C0.971543 17.1149 1.09598 17.4781 1.26688 17.82C1.44561 18.1909 1.68565 18.529 1.97688 18.82C2.27079 19.1078 2.60827 19.3474 2.97687 19.53C3.31924 19.6976 3.68245 19.8186 4.05688 19.89C4.48081 19.9535 4.90832 19.9902 5.33687 20H16.2469C16.6783 19.9888 17.1089 19.9554 17.5369 19.9C17.9118 19.8253 18.275 19.7009 18.6169 19.53C18.9878 19.3513 19.3258 19.1112 19.6169 18.82C19.9047 18.5261 20.1443 18.1886 20.3269 17.82C20.4944 17.4776 20.6155 17.1144 20.6869 16.74C20.7504 16.3161 20.7871 15.8886 20.7969 15.46V5.08V4.55ZM11.0269 17C9.82594 16.9941 8.64601 16.6845 7.59688 16.1L3.79688 17.1L4.79688 13.38C4.15199 12.2965 3.80686 11.0609 3.79688 9.8C3.80086 8.38293 4.22408 6.99872 5.01324 5.82171C5.80239 4.6447 6.92219 3.72753 8.2316 3.18572C9.54101 2.6439 10.9815 2.50167 12.3716 2.77694C13.7616 3.05221 15.0392 3.73266 16.0433 4.7326C17.0474 5.73255 17.7332 7.00725 18.0142 8.39619C18.2953 9.78512 18.159 11.2262 17.6227 12.5378C17.0863 13.8495 16.1738 14.9731 15.0001 15.7671C13.8264 16.5612 12.4439 16.9901 11.0269 17ZM11.0269 3.87C9.96668 3.88213 8.92864 4.17498 8.01843 4.71874C7.10822 5.26249 6.35835 6.03773 5.84517 6.96552C5.33199 7.89331 5.07382 8.94052 5.09696 10.0005C5.12009 11.0605 5.4237 12.0955 5.97687 13L6.11688 13.23L5.51687 15.42L7.79688 14.8L8.01688 14.93C8.92645 15.4658 9.96127 15.7521 11.0169 15.76C12.6082 15.76 14.1343 15.1279 15.2595 14.0026C16.3847 12.8774 17.0169 11.3513 17.0169 9.76C17.0169 8.1687 16.3847 6.64258 15.2595 5.51736C14.1343 4.39214 12.6082 3.76 11.0169 3.76L11.0269 3.87ZM14.5269 12.39C14.3959 12.6085 14.2205 12.797 14.0121 12.9434C13.8037 13.0898 13.5668 13.1909 13.3169 13.24C12.9434 13.3083 12.5589 13.2842 12.1969 13.17C11.8562 13.0635 11.5223 12.9366 11.1969 12.79C9.96062 12.1697 8.90631 11.2394 8.13688 10.09C7.71876 9.55748 7.46506 8.91455 7.40687 8.24C7.40092 7.95979 7.45393 7.68145 7.56246 7.42305C7.67099 7.16464 7.83262 6.93192 8.03687 6.74C8.09704 6.67179 8.17085 6.61696 8.25353 6.57906C8.33621 6.54117 8.42593 6.52105 8.51688 6.52H8.79688C8.90687 6.52 9.05687 6.52 9.19687 6.83C9.33687 7.14 9.70687 8.07 9.75688 8.16C9.78145 8.20797 9.79426 8.2611 9.79426 8.315C9.79426 8.3689 9.78145 8.42203 9.75688 8.47C9.71267 8.57867 9.65195 8.67986 9.57687 8.77C9.48687 8.88 9.38688 9.01 9.30688 9.09C9.22688 9.17 9.12687 9.27 9.22688 9.45C9.49896 9.90919 9.83575 10.3268 10.2269 10.69C10.6528 11.0664 11.1398 11.3673 11.6669 11.58C11.8469 11.67 11.9569 11.66 12.0569 11.58C12.1569 11.5 12.5069 11.06 12.6269 10.88C12.7469 10.7 12.8669 10.73 13.0269 10.79C13.1869 10.85 14.0769 11.28 14.2569 11.37C14.4369 11.46 14.5469 11.5 14.5969 11.58C14.6402 11.8417 14.6162 12.1102 14.5269 12.36V12.39Z" fill="black"/>
</svg>
